<?xml version="1.0" encoding="UTF-8" standalone="no"?><!-- Generator: Gravit.io --><svg xmlns="http://www.w3.org/2000/svg" xmlns:xlink="http://www.w3.org/1999/xlink" style="isolation:isolate" viewBox="820 250 30 30" width="30pt" height="30pt"><g><path d=" M 830 270 C 830 264.481 825.519 260 820 260 L 820 260 L 820 260 C 825.519 260 830 255.519 830 250 C 830 255.519 834.481 260 840 260 C 834.481 260 830 264.481 830 270 Z " fill="rgb(60,60,71)"/><path d=" M 842.5 275 C 842.5 270.861 839.139 267.5 835 267.5 L 835 267.5 L 835 267.5 C 839.139 267.5 842.5 264.139 842.5 260 C 842.5 264.139 845.861 267.5 850 267.5 C 845.861 267.5 842.5 270.861 842.5 275 Z " fill="rgb(60,60,71)"/><path d=" M 835 280 C 835 277.24 832.76 275 830 275 L 830 275 L 830 275 C 832.76 275 835 272.76 835 270 C 835 272.76 837.24 275 840 275 C 837.24 275 835 277.24 835 280 Z " fill="rgb(60,60,71)"/></g></svg>